<svg aria-hidden="true" style="position: absolute; width: 0; height: 0; overflow: hidden;" version="1.1" xmlns="http://www.w3.org/2000/svg" xmlns:xlink="http://www.w3.org/1999/xlink">
<defs>
<symbol id="icon-youtube" viewBox="0 0 32 32">
<title>youtube</title>
<path d="M31.681 9.6c0 0-0.313-2.206-1.275-3.175-1.219-1.275-2.581-1.281-3.206-1.356-4.475-0.325-11.194-0.325-11.194-0.325h-0.012c0 0-6.719 0-11.194 0.325-0.625 0.075-1.987 0.081-3.206 1.356-0.963 0.969-1.269 3.175-1.269 3.175s-0.319 2.588-0.319 5.181v2.425c0 2.587 0.319 5.181 0.319 5.181s0.313 2.206 1.269 3.175c1.219 1.275 2.819 1.231 3.531 1.369 2.563 0.244 10.881 0.319 10.881 0.319s6.725-0.012 11.2-0.331c0.625-0.075 1.988-0.081 3.206-1.356 0.962-0.969 1.275-3.175 1.275-3.175s0.319-2.587 0.319-5.181v-2.425c-0.006-2.588-0.325-5.181-0.325-5.181zM12.694 20.15v-8.994l8.644 4.513-8.644 4.481z"></path>
</symbol>
<symbol id="icon-facebook" viewBox="0 0 32 32">
<title>facebook</title>
<path d="M19 6h5v-6h-5c-3.86 0-7 3.14-7 7v3h-4v6h4v16h6v-16h5l1-6h-6v-3c0-0.542 0.458-1 1-1z"></path>
</symbol>
<symbol id="icon-twitter" viewBox="0 0 32 32">
<title>twitter</title>
<path d="M32 7.075c-1.175 0.525-2.444 0.875-3.769 1.031 1.356-0.813 2.394-2.1 2.887-3.631-1.269 0.75-2.675 1.3-4.169 1.594-1.2-1.275-2.906-2.069-4.794-2.069-3.625 0-6.563 2.938-6.563 6.563 0 0.512 0.056 1.012 0.169 1.494-5.456-0.275-10.294-2.888-13.531-6.862-0.563 0.969-0.887 2.1-0.887 3.3 0 2.275 1.156 4.287 2.919 5.463-1.075-0.031-2.087-0.331-2.975-0.819 0 0.025 0 0.056 0 0.081 0 3.181 2.263 5.838 5.269 6.437-0.55 0.15-1.131 0.231-1.731 0.231-0.425 0-0.831-0.044-1.237-0.119 0.838 2.606 3.263 4.506 6.131 4.563-2.25 1.762-5.075 2.813-8.156 2.813-0.531 0-1.050-0.031-1.569-0.094 2.913 1.869 6.362 2.95 10.069 2.95 12.075 0 18.681-10.006 18.681-18.681 0-0.287-0.006-0.569-0.019-0.85 1.281-0.919 2.394-2.075 3.275-3.394z"></path>
</symbol>
<symbol id="icon-googlepay" viewBox="0 0 32 32">
<title>googlepay</title>
<path  d="M32 13.333l-4.179 9.333h-1.291l1.551-3.267-2.748-6.067h1.36l1.987 4.653h0.027l1.931-4.653zM14.644 16.221v3.779h-1.311v-9.333h3.476c0.025-0.001 0.053-0.001 0.082-0.001 0.831 0 1.59 0.306 2.171 0.812l-0.004-0.003c0.611 0.503 0.953 1.22 0.941 1.971 0 0.009 0 0.020 0 0.030 0 0.788-0.366 1.49-0.937 1.946l-0.005 0.004c-0.607 0.531-1.357 0.795-2.249 0.795h-2.165zM14.641 11.816v3.259h2.197c0.487 0.013 0.957-0.163 1.297-0.483 0.336-0.3 0.527-0.711 0.527-1.141 0-0.429-0.191-0.84-0.527-1.14-0.321-0.307-0.757-0.496-1.237-0.496-0.021 0-0.043 0-0.064 0.001l0.003-0h-2.197zM22.629 13.333c0.836 0 1.496 0.232 1.98 0.696 0.483 0.464 0.724 1.101 0.724 1.909v3.857h-1.081v-0.869h-0.049c-0.468 0.716-1.091 1.073-1.867 1.073-0.664 0-1.219-0.204-1.667-0.613-0.412-0.366-0.67-0.898-0.67-1.489 0-0.015 0-0.031 0.001-0.046l-0 0.002c0-0.647 0.236-1.161 0.707-1.544s1.1-0.573 1.887-0.575c0.671 0 1.224 0.128 1.657 0.383v-0.268c0-0.004 0-0.009 0-0.014 0-0.408-0.18-0.775-0.465-1.024l-0.002-0.001c-0.28-0.266-0.66-0.429-1.078-0.429-0.005 0-0.009 0-0.014 0h0.001c-0.632 0-1.132 0.277-1.499 0.831l-0.996-0.651c0.547-0.817 1.357-1.227 2.431-1.227zM21.167 17.88c-0 0.003-0 0.006-0 0.009 0 0.308 0.147 0.582 0.374 0.756l0.002 0.002c0.249 0.204 0.56 0.312 0.879 0.307 0.476-0.001 0.933-0.2 1.271-0.549 0.346-0.32 0.563-0.777 0.563-1.284 0-0.002 0-0.004 0-0.005v0c-0.353-0.293-0.844-0.439-1.475-0.439-0.46 0-0.843 0.116-1.149 0.347-0.309 0.232-0.464 0.516-0.464 0.857zM5.441 10.667c0.020-0 0.043-0 0.067-0 1.379 0 2.635 0.528 3.577 1.393l-0.004-0.003-1.552 1.523c-0.532-0.496-1.248-0.8-2.035-0.8-0.019 0-0.037 0-0.056 0.001l0.003-0c-1.411 0.009-2.607 0.916-3.048 2.177l-0.007 0.023c-0.108 0.304-0.171 0.656-0.171 1.021s0.063 0.717 0.178 1.043l-0.007-0.022c0.447 1.284 1.644 2.191 3.054 2.2h0.001c0.735 0 1.364-0.184 1.853-0.508 0.572-0.373 0.964-0.96 1.085-1.623h-2.939v-2.053h5.132c0.063 0.359 0.093 0.72 0.093 1.084 0 1.623-0.592 2.996-1.619 3.924-0.901 0.816-2.139 1.288-3.607 1.288-0.007 0-0.014 0-0.022 0-2.093 0-3.91-1.179-4.825-2.909l-0.014-0.030c-0.365-0.696-0.579-1.52-0.579-2.395s0.214-1.699 0.593-2.424l-0.014 0.029c0.929-1.76 2.746-2.939 4.839-2.939 0.007 0 0.015 0 0.022 0h-0.001z"></path>
</symbol>
<symbol id="icon-applepay" viewBox="0 0 32 32">
<title>applepay</title>
<path d="M5.851 11.045c-0.376 0.449-0.976 0.803-1.576 0.752-0.075-0.607 0.219-1.251 0.563-1.649 0.376-0.461 1.032-0.788 1.563-0.815 0.063 0.632-0.181 1.251-0.549 1.712zM6.393 11.917c-0.868-0.051-1.613 0.5-2.024 0.5-0.42 0-1.051-0.475-1.739-0.461-0.893 0.013-1.724 0.524-2.18 1.34-0.939 1.629-0.244 4.044 0.661 5.371 0.444 0.657 0.976 1.377 1.676 1.352 0.661-0.025 0.924-0.436 1.724-0.436 0.807 0 1.037 0.436 1.739 0.424 0.724-0.013 1.18-0.657 1.624-1.315 0.507-0.747 0.713-1.472 0.725-1.511-0.013-0.013-1.4-0.549-1.413-2.167-0.012-1.353 1.093-1.997 1.144-2.035-0.624-0.936-1.6-1.037-1.937-1.063zM11.413 10.085v9.852h1.513v-3.368h2.093c1.912 0 3.256-1.328 3.256-3.248 0-1.921-1.319-3.236-3.205-3.236h-3.659zM12.927 11.375h1.744c1.312 0 2.061 0.707 2.061 1.952s-0.749 1.96-2.068 1.96h-1.739v-3.913zM21.039 20.012c0.951 0 1.832-0.485 2.232-1.257h0.031v1.183h1.4v-4.904c0-1.421-1.125-2.339-2.856-2.339-1.607 0-2.793 0.929-2.837 2.205h1.363c0.112-0.607 0.668-1.004 1.431-1.004 0.925 0 1.444 0.436 1.444 1.239v0.543l-1.888 0.115c-1.756 0.107-2.707 0.833-2.707 2.097 0 1.276 0.981 2.123 2.388 2.123zM21.445 18.844c-0.807 0-1.32-0.392-1.32-0.992 0-0.62 0.495-0.98 1.439-1.037l1.68-0.107v0.556c0 0.923-0.773 1.58-1.8 1.58zM26.571 22.617c1.475 0 2.168-0.569 2.773-2.295l2.656-7.533h-1.537l-1.781 5.82h-0.031l-1.781-5.82h-1.581l2.561 7.173-0.137 0.436c-0.231 0.739-0.605 1.023-1.275 1.023-0.119 0-0.349-0.013-0.444-0.025v1.183c0.088 0.025 0.463 0.037 0.576 0.037z"></path>
</symbol>
<symbol id="icon-cc-visa" viewBox="0 0 36 28">
<title>cc-visa</title>
<path d="M30.859 15.469h-2.156c0 0 0.219-0.578 1.031-2.797-0.016 0.016 0.219-0.578 0.344-0.953l0.187 0.859c0.484 2.391 0.594 2.891 0.594 2.891zM8.297 14.453l-0.906-4.609c-0.125-0.641-0.609-0.844-1.172-0.844h-4.188l-0.031 0.203c2.875 0.734 5.234 2.297 6.297 5.25zM11.094 9l-2.531 6.844-0.266-1.391c-0.547-1.453-1.875-2.797-3.375-3.406l2.109 7.969h2.734l4.078-10.016h-2.75zM13.266 19.031h2.594l1.625-10.031h-2.594zM25.266 9.25c-0.516-0.203-1.328-0.422-2.328-0.422-2.562 0-4.359 1.359-4.375 3.313-0.016 1.437 1.281 2.234 2.266 2.719 1.016 0.484 1.344 0.812 1.344 1.25 0 0.672-0.812 0.969-1.547 0.969-1.047 0-1.609-0.125-2.438-0.516l-0.344-0.172-0.359 2.25c0.609 0.281 1.719 0.531 2.891 0.531 2.719 0.016 4.484-1.344 4.516-3.422 0-1.141-0.703-2-2.188-2.719-0.906-0.453-1.453-0.781-1.453-1.25 0-0.422 0.469-0.859 1.484-0.859 0.844-0.016 1.469 0.156 1.937 0.375l0.234 0.125zM31.906 9h-2c-0.625 0-1.094 0.187-1.359 0.844l-3.844 9.188h2.719c0.438-1.234 0.547-1.5 0.547-1.5h3.313c0 0 0.078 0.344 0.313 1.5h2.406zM36 4v20c0 1.094-0.906 2-2 2h-32c-1.094 0-2-0.906-2-2v-20c0-1.094 0.906-2 2-2h32c1.094 0 2 0.906 2 2z"></path>
</symbol>
<symbol id="icon-linkedin" viewBox="0 0 32 32">
<title>linkedin</title>
<path d="M29 0h-26c-1.65 0-3 1.35-3 3v26c0 1.65 1.35 3 3 3h26c1.65 0 3-1.35 3-3v-26c0-1.65-1.35-3-3-3zM12 26h-4v-14h4v14zM10 10c-1.106 0-2-0.894-2-2s0.894-2 2-2c1.106 0 2 0.894 2 2s-0.894 2-2 2zM26 26h-4v-8c0-1.106-0.894-2-2-2s-2 0.894-2 2v8h-4v-14h4v2.481c0.825-1.131 2.087-2.481 3.5-2.481 2.488 0 4.5 2.238 4.5 5v9z"></path>
</symbol>
</defs>
</svg>
