<svg aria-hidden="true" style="position:absolute;width:0;height:0" xmlns="http://www.w3.org/2000/svg" overflow="hidden"><defs><symbol id="icon-youtube" viewBox="0 0 32 32"><path d="M31.681 9.6s-.313-2.206-1.275-3.175C29.187 5.15 27.825 5.144 27.2 5.069c-4.475-.325-11.194-.325-11.194-.325h-.012s-6.719 0-11.194.325c-.625.075-1.987.081-3.206 1.356C.631 7.394.325 9.6.325 9.6s-.319 2.588-.319 5.181v2.425c0 2.587.319 5.181.319 5.181s.313 2.206 1.269 3.175c1.219 1.275 2.819 1.231 3.531 1.369 2.563.244 10.881.319 10.881.319s6.725-.012 11.2-.331c.625-.075 1.988-.081 3.206-1.356.962-.969 1.275-3.175 1.275-3.175s.319-2.587.319-5.181v-2.425c-.006-2.588-.325-5.181-.325-5.181zM12.694 20.15v-8.994l8.644 4.513-8.644 4.481z"/></symbol><symbol id="icon-facebook" viewBox="0 0 32 32"><path d="M19 6h5V0h-5c-3.86 0-7 3.14-7 7v3H8v6h4v16h6V16h5l1-6h-6V7c0-.542.458-1 1-1z"/></symbol><symbol id="icon-twitter" viewBox="0 0 32 32"><path d="M32 7.075a12.941 12.941 0 0 1-3.769 1.031 6.601 6.601 0 0 0 2.887-3.631 13.21 13.21 0 0 1-4.169 1.594A6.565 6.565 0 0 0 22.155 4a6.563 6.563 0 0 0-6.563 6.563c0 .512.056 1.012.169 1.494A18.635 18.635 0 0 1 2.23 5.195a6.56 6.56 0 0 0-.887 3.3 6.557 6.557 0 0 0 2.919 5.463 6.565 6.565 0 0 1-2.975-.819v.081a6.565 6.565 0 0 0 5.269 6.437 6.574 6.574 0 0 1-2.968.112 6.588 6.588 0 0 0 6.131 4.563 13.17 13.17 0 0 1-9.725 2.719 18.568 18.568 0 0 0 10.069 2.95c12.075 0 18.681-10.006 18.681-18.681 0-.287-.006-.569-.019-.85A13.216 13.216 0 0 0 32 7.076z"/></symbol><symbol id="icon-googlepay" viewBox="0 0 32 32"><path d="M32 13.333l-4.179 9.333H26.53l1.551-3.267-2.748-6.067h1.36l1.987 4.653h.027l1.931-4.653zm-17.356 2.888V20h-1.311v-9.333h3.476l.082-.001c.831 0 1.59.306 2.171.812l-.004-.003c.611.503.953 1.22.941 1.971v.03c0 .788-.366 1.49-.937 1.946l-.005.004c-.607.531-1.357.795-2.249.795h-2.165zm-.003-4.405v3.259h2.197c.487.013.957-.163 1.297-.483.336-.3.527-.711.527-1.141 0-.429-.191-.84-.527-1.14a1.784 1.784 0 0 0-1.237-.496l-.064.001h.003-2.197zm7.988 1.517c.836 0 1.496.232 1.98.696.483.464.724 1.101.724 1.909v3.857h-1.081v-.869h-.049c-.468.716-1.091 1.073-1.867 1.073-.664 0-1.219-.204-1.667-.613a1.986 1.986 0 0 1-.67-1.489l.001-.046v.002c0-.647.236-1.161.707-1.544s1.1-.573 1.887-.575c.671 0 1.224.128 1.657.383v-.282c0-.408-.18-.775-.465-1.024l-.002-.001a1.56 1.56 0 0 0-1.078-.429h-.014.001c-.632 0-1.132.277-1.499.831l-.996-.651c.547-.817 1.357-1.227 2.431-1.227zm-1.462 4.547v.009c0 .308.147.582.374.756l.002.002c.249.204.56.312.879.307.476-.001.933-.2 1.271-.549.346-.32.563-.777.563-1.284v-.005c-.353-.293-.844-.439-1.475-.439-.46 0-.843.116-1.149.347-.309.232-.464.516-.464.857zM5.441 10.667h.067c1.379 0 2.635.528 3.577 1.393l-.004-.003-1.552 1.523a2.975 2.975 0 0 0-2.035-.8l-.056.001h.003a3.251 3.251 0 0 0-3.048 2.177l-.007.023a3.134 3.134 0 0 0 .007 2.064l-.007-.022a3.256 3.256 0 0 0 3.054 2.2h.001c.735 0 1.364-.184 1.853-.508a2.47 2.47 0 0 0 1.085-1.623H5.44v-2.053h5.132c.063.359.093.72.093 1.084 0 1.623-.592 2.996-1.619 3.924-.901.816-2.139 1.288-3.607 1.288h-.022a5.454 5.454 0 0 1-4.825-2.909l-.014-.03c-.365-.696-.579-1.52-.579-2.395s.214-1.699.593-2.424l-.014.029c.929-1.76 2.746-2.939 4.839-2.939h.022-.001z"/></symbol><symbol id="icon-applepay" viewBox="0 0 32 32"><path d="M5.851 11.045c-.376.449-.976.803-1.576.752-.075-.607.219-1.251.563-1.649.376-.461 1.032-.788 1.563-.815.063.632-.181 1.251-.549 1.712zm.542.872c-.868-.051-1.613.5-2.024.5-.42 0-1.051-.475-1.739-.461-.893.013-1.724.524-2.18 1.34-.939 1.629-.244 4.044.661 5.371.444.657.976 1.377 1.676 1.352.661-.025.924-.436 1.724-.436.807 0 1.037.436 1.739.424.724-.013 1.18-.657 1.624-1.315.507-.747.713-1.472.725-1.511-.013-.013-1.4-.549-1.413-2.167-.012-1.353 1.093-1.997 1.144-2.035-.624-.936-1.6-1.037-1.937-1.063zm5.02-1.832v9.852h1.513v-3.368h2.093c1.912 0 3.256-1.328 3.256-3.248 0-1.921-1.319-3.236-3.205-3.236h-3.659zm1.514 1.29h1.744c1.312 0 2.061.707 2.061 1.952s-.749 1.96-2.068 1.96h-1.739v-3.913zm8.112 8.637c.951 0 1.832-.485 2.232-1.257h.031v1.183h1.4v-4.904c0-1.421-1.125-2.339-2.856-2.339-1.607 0-2.793.929-2.837 2.205h1.363c.112-.607.668-1.004 1.431-1.004.925 0 1.444.436 1.444 1.239v.543l-1.888.115c-1.756.107-2.707.833-2.707 2.097 0 1.276.981 2.123 2.388 2.123zm.406-1.168c-.807 0-1.32-.392-1.32-.992 0-.62.495-.98 1.439-1.037l1.68-.107v.556c0 .923-.773 1.58-1.8 1.58zm5.126 3.773c1.475 0 2.168-.569 2.773-2.295L32 12.789h-1.537l-1.781 5.82h-.031l-1.781-5.82h-1.581l2.561 7.173-.137.436c-.231.739-.605 1.023-1.275 1.023a4.94 4.94 0 0 1-.444-.025v1.183c.088.025.463.037.576.037z"/></symbol><symbol id="icon-cc-visa" viewBox="0 0 36 28"><path d="M30.859 15.469h-2.156s.219-.578 1.031-2.797c-.016.016.219-.578.344-.953l.187.859c.484 2.391.594 2.891.594 2.891zM8.297 14.453l-.906-4.609C7.266 9.203 6.782 9 6.219 9H2.031L2 9.203c2.875.734 5.234 2.297 6.297 5.25zM11.094 9l-2.531 6.844-.266-1.391C7.75 13 6.422 11.656 4.922 11.047l2.109 7.969h2.734L13.843 9h-2.75zm2.172 10.031h2.594L17.485 9h-2.594zm12-9.781a6.451 6.451 0 0 0-2.328-.422c-2.562 0-4.359 1.359-4.375 3.313-.016 1.437 1.281 2.234 2.266 2.719 1.016.484 1.344.812 1.344 1.25 0 .672-.812.969-1.547.969-1.047 0-1.609-.125-2.438-.516l-.344-.172-.359 2.25c.609.281 1.719.531 2.891.531 2.719.016 4.484-1.344 4.516-3.422 0-1.141-.703-2-2.188-2.719-.906-.453-1.453-.781-1.453-1.25 0-.422.469-.859 1.484-.859.844-.016 1.469.156 1.937.375l.234.125zm6.64-.25h-2c-.625 0-1.094.187-1.359.844l-3.844 9.188h2.719c.438-1.234.547-1.5.547-1.5h3.313s.078.344.313 1.5h2.406zM36 4v20c0 1.094-.906 2-2 2H2c-1.094 0-2-.906-2-2V4c0-1.094.906-2 2-2h32c1.094 0 2 .906 2 2z"/></symbol><symbol id="icon-linkedin" viewBox="0 0 32 32"><path d="M29 0H3C1.35 0 0 1.35 0 3v26c0 1.65 1.35 3 3 3h26c1.65 0 3-1.35 3-3V3c0-1.65-1.35-3-3-3zM12 26H8V12h4v14zm-2-16c-1.106 0-2-.894-2-2s.894-2 2-2c1.106 0 2 .894 2 2s-.894 2-2 2zm16 16h-4v-8c0-1.106-.894-2-2-2s-2 .894-2 2v8h-4V12h4v2.481C18.825 13.35 20.087 12 21.5 12c2.488 0 4.5 2.238 4.5 5v9z"/></symbol></defs></svg>